<svg width="1536" height="1024" viewBox="0 0 1536 1024" fill="none" xmlns="http://www.w3.org/2000/svg">
  <rect width="1536" height="1024" fill="white"/>
  <path d="M180 782C328 898 555 852 670 706C822 514 1034 240 1314 324C1434 360 1478 470 1424 590C1344 770 1040 804 806 838C570 872 322 906 180 782Z" fill="url(#wash)"/>
  <path d="M488 178C623 94 800 96 930 190C1050 276 1070 420 976 510C862 620 654 560 536 478C420 398 378 246 488 178Z" fill="#F4F0FF"/>
  <path d="M886 190C980 112 1126 122 1220 210C1308 292 1330 430 1268 520C1200 618 1058 610 958 540C850 464 784 274 886 190Z" fill="#E9FBFF"/>
  <g filter="url(#softShadow)">
    <path d="M640 268C640 226 674 192 716 192H1180C1222 192 1256 226 1256 268V684C1256 726 1222 760 1180 760H716C674 760 640 726 640 684V268Z" fill="white" fill-opacity=".92"/>
    <path d="M716 194H1180C1220.9 194 1254 227.131 1254 268V684C1254 724.869 1220.9 758 1180 758H716C675.131 758 642 724.869 642 684V268C642 227.131 675.131 194 716 194Z" stroke="#DCD3FF" stroke-width="4"/>
  </g>
  <path d="M704 276C704 246 728 222 758 222H880C910 222 934 246 934 276V650C934 680 910 704 880 704H758C728 704 704 680 704 650V276Z" fill="#F5F2FF"/>
  <rect x="738" y="260" width="118" height="32" rx="16" fill="#7C3AED"/>
  <text x="764" y="282" fill="white" font-family="Arial, sans-serif" font-size="17" font-weight="700">Ask AI</text>
  <circle cx="754" cy="346" r="16" fill="#C4B5FD"/>
  <path d="M786 332H880M786 358H850" stroke="#64748B" stroke-width="9" stroke-linecap="round"/>
  <circle cx="754" cy="430" r="16" fill="#7C3AED"/>
  <path d="M786 416H880M786 442H858" stroke="#8B5CF6" stroke-width="9" stroke-linecap="round"/>
  <circle cx="754" cy="514" r="16" fill="#BAE6FD"/>
  <path d="M786 500H880M786 526H840" stroke="#64748B" stroke-width="9" stroke-linecap="round"/>
  <rect x="982" y="250" width="252" height="92" rx="24" fill="#F5F2FF" stroke="#DDD4FF" stroke-width="2"/>
  <text x="1014" y="288" fill="#111827" font-family="Arial, sans-serif" font-size="24" font-weight="700">Student doubt</text>
  <text x="1014" y="318" fill="#64748B" font-family="Arial, sans-serif" font-size="20">Why is force equal to ma?</text>
  <g filter="url(#orbShadow)">
    <circle cx="1264" cy="326" r="72" fill="url(#orb)"/>
    <path d="M1264 274V378M1212 326H1316" stroke="white" stroke-width="14" stroke-linecap="round"/>
    <circle cx="1264" cy="326" r="32" fill="white" fill-opacity=".86"/>
  </g>
  <rect x="982" y="398" width="382" height="210" rx="26" fill="#FFFFFF" stroke="#D8CCFF" stroke-width="3"/>
  <text x="1012" y="442" fill="#7C3AED" font-family="Arial, sans-serif" font-size="24" font-weight="700">AI Explanation</text>
  <path d="M1014 486H1290M1014 520H1324M1014 554H1278" stroke="#CBD5E1" stroke-width="11" stroke-linecap="round"/>
  <path d="M1028 586C1082 528 1160 528 1216 586C1270 642 1340 620 1376 572" stroke="#7C6CF2" stroke-width="10" stroke-linecap="round"/>
  <circle cx="1028" cy="586" r="11" fill="#7C3AED"/>
  <circle cx="1376" cy="572" r="11" fill="#7C3AED"/>
  <rect x="982" y="646" width="206" height="62" rx="19" fill="#FFF7D6" stroke="#FDE68A" stroke-width="2"/>
  <path d="M1014 676H1150M1014 696H1118" stroke="#A16207" stroke-width="8" stroke-linecap="round"/>
  <rect x="1224" y="646" width="176" height="62" rx="19" fill="#ECFEFF" stroke="#BAE6FD" stroke-width="2"/>
  <path d="M1254 676H1364M1254 696H1332" stroke="#0891B2" stroke-width="8" stroke-linecap="round"/>
  <path d="M564 362C500 370 460 402 446 458C430 520 466 574 532 594" stroke="#A78BFA" stroke-width="8" stroke-linecap="round" stroke-dasharray="4 20"/>
  <path d="M492 626C548 696 632 728 748 724" stroke="#22D3EE" stroke-width="8" stroke-linecap="round" stroke-dasharray="4 20"/>
  <circle cx="452" cy="458" r="18" fill="#A78BFA"/>
  <circle cx="748" cy="724" r="18" fill="#22D3EE"/>
  <path d="M374 352H514M374 396H470M374 440H530" stroke="#111827" stroke-width="18" stroke-linecap="round" opacity=".12"/>
  <path d="M246 616H446M246 660H388" stroke="#111827" stroke-width="18" stroke-linecap="round" opacity=".12"/>
  <circle cx="1380" cy="226" r="22" fill="#C4B5FD"/>
  <path d="M1380 208V244M1362 226H1398" stroke="#7C3AED" stroke-width="8" stroke-linecap="round"/>
  <circle cx="580" cy="224" r="18" fill="#BAE6FD"/>
  <path d="M572 224L578 230L590 216" stroke="#0891B2" stroke-width="6" stroke-linecap="round" stroke-linejoin="round"/>
  <defs>
    <linearGradient id="wash" x1="185" y1="330" x2="1428" y2="866" gradientUnits="userSpaceOnUse">
      <stop stop-color="#F7F2FF"/>
      <stop offset=".48" stop-color="#EEF2FF"/>
      <stop offset="1" stop-color="#E6FFFB"/>
    </linearGradient>
    <linearGradient id="orb" x1="1192" y1="254" x2="1336" y2="398" gradientUnits="userSpaceOnUse">
      <stop stop-color="#A78BFA"/>
      <stop offset=".48" stop-color="#7C3AED"/>
      <stop offset="1" stop-color="#22D3EE"/>
    </linearGradient>
    <filter id="softShadow" x="592" y="160" width="712" height="664" filterUnits="userSpaceOnUse" color-interpolation-filters="sRGB">
      <feFlood flood-opacity="0" result="BackgroundImageFix"/>
      <feColorMatrix in="SourceAlpha" type="matrix" values="0 0 0 0 0 0 0 0 0 0 0 0 0 0 0 0 0 0 127 0" result="hardAlpha"/>
      <feOffset dy="18"/>
      <feGaussianBlur stdDeviation="24"/>
      <feComposite in2="hardAlpha" operator="out"/>
      <feColorMatrix type="matrix" values="0 0 0 0 0.498 0 0 0 0 0.424 0 0 0 0 0.949 0 0 0 0.18 0"/>
      <feBlend mode="normal" in2="BackgroundImageFix" result="effect1_dropShadow_1_1"/>
      <feBlend mode="normal" in="SourceGraphic" in2="effect1_dropShadow_1_1" result="shape"/>
    </filter>
    <filter id="orbShadow" x="1164" y="226" width="200" height="200" filterUnits="userSpaceOnUse" color-interpolation-filters="sRGB">
      <feFlood flood-opacity="0" result="BackgroundImageFix"/>
      <feGaussianBlur in="BackgroundImageFix" stdDeviation="0"/>
      <feOffset dy="14"/>
      <feGaussianBlur stdDeviation="14"/>
      <feColorMatrix type="matrix" values="0 0 0 0 0.124 0 0 0 0 0.827 0 0 0 0 0.933 0 0 0 0.22 0"/>
      <feBlend mode="normal" in2="BackgroundImageFix" result="effect1_dropShadow_1_1"/>
      <feBlend mode="normal" in="SourceGraphic" in2="effect1_dropShadow_1_1" result="shape"/>
    </filter>
  </defs>
</svg>
